Coordinates
version=1
nRows=13
nColumns=38
inDegrees=no

Units are S.I. units (second, meters, Newtons, ...)
If the header above contains a line with 'inDegrees', this indicates whether rotational values are in degrees (yes) or radians (no).

endheader
time	pelvis_tilt	pelvis_list	pelvis_rotation	pelvis_tx	pelvis_ty	pelvis_tz	hip_flexion_r	hip_adduction_r	hip_rotation_r	knee_angle_r	ankle_angle_r	subtalar_angle_r	mtp_angle_r	hip_flexion_l	hip_adduction_l	hip_rotation_l	knee_angle_l	ankle_angle_l	subtalar_angle_l	mtp_angle_l	lumbar_extension	lumbar_bending	lumbar_rotation	arm_flex_r	arm_add_r	arm_rot_r	elbow_flex_r	pro_sup_r	wrist_flex_r	wrist_dev_r	arm_flex_l	arm_add_l	arm_rot_l	elbow_flex_l	pro_sup_l	wrist_flex_l	wrist_dev_l
150	-2.90186	1.36864	-1.39148	0.873584	-0.880316	1.07926	-0.0307822	-0.0780845	-0.128951	0.200633	-0.460495	0	0	-0.332125	-0.00826913	-0.161796	0.209659	-0.2066	0	0	-0.557453	0.0401081	0.0379255	-0.244214	-0.271621	-0.519183	2.10908	0	0	0	0.456774	0.0380252	0.354457	1.48317	1.5708	0	0
150.01	-2.90633	1.37046	-1.38656	0.874138	-0.878721	1.07929	-0.029987	-0.0762445	-0.132516	0.201733	-0.458956	0	0	-0.330772	-0.0103232	-0.16208	0.210278	-0.206762	0	0	-0.55648	0.0409164	0.0375103	-0.23908	-0.271591	-0.517997	2.1064	0	0	0	0.460503	0.0410814	0.351791	1.47812	1.5708	0	0
150.02	-2.90817	1.37235	-1.38416	0.874673	-0.877141	1.07926	-0.0294257	-0.0752543	-0.135218	0.202094	-0.457012	0	0	-0.329436	-0.011638	-0.161797	0.21084	-0.207033	0	0	-0.555379	0.0411701	0.0372422	-0.234377	-0.271233	-0.517427	2.10398	0	0	0	0.464666	0.0440191	0.349861	1.47276	1.5708	0	0
150.03	-2.91232	1.37406	-1.38022	0.875316	-0.875389	1.07921	-0.0291279	-0.0737593	-0.136877	0.201824	-0.455272	0	0	-0.328814	-0.0134879	-0.162607	0.210991	-0.207089	0	0	-0.553877	0.0413058	0.0380462	-0.230222	-0.270782	-0.51726	2.10143	0	0	0	0.468798	0.0464972	0.34871	1.46728	1.5708	0	0
150.04	-2.91509	1.37558	-1.37736	0.875882	-0.873707	1.07919	-0.0289931	-0.0726314	-0.138477	0.201879	-0.453689	0	0	-0.328347	-0.0149606	-0.162761	0.211048	-0.207223	0	0	-0.55302	0.0411564	0.0384551	-0.22568	-0.270609	-0.517138	2.0985	0	0	0	0.473301	0.0490681	0.347873	1.46211	1.5708	0	0
150.05	-2.91637	1.3768	-1.37575	0.8764	-0.872155	1.0792	-0.0290899	-0.071649	-0.139964	0.202212	-0.451944	0	0	-0.32809	-0.016181	-0.162086	0.211216	-0.207522	0	0	-0.553194	0.0408338	0.0383476	-0.221032	-0.270719	-0.517149	2.09613	0	0	0	0.478301	0.0518686	0.347012	1.45712	1.5708	0	0
150.06	-2.92054	1.3782	-1.37202	0.877047	-0.870453	1.07918	-0.0289278	-0.0699657	-0.140756	0.202252	-0.450191	0	0	-0.327566	-0.0180501	-0.163168	0.211879	-0.207655	0	0	-0.553102	0.0403886	0.0389102	-0.216419	-0.270969	-0.517038	2.09314	0	0	0	0.48298	0.0543895	0.346437	1.45246	1.5708	0	0
150.07	-2.92487	1.37956	-1.36835	0.877729	-0.86873	1.07917	-0.0287208	-0.068307	-0.141482	0.202478	-0.448211	0	0	-0.327044	-0.0198957	-0.164425	0.212633	-0.207842	0	0	-0.553051	0.0397997	0.039466	-0.211557	-0.271299	-0.516931	2.08986	0	0	0	0.487894	0.0565482	0.346236	1.4477	1.5708	0	0
150.08	-2.92891	1.38092	-1.36499	0.878421	-0.867011	1.07918	-0.0285524	-0.0666601	-0.142249	0.202577	-0.446495	0	0	-0.327036	-0.0213065	-0.16416	0.211936	-0.20854	0	0	-0.553048	0.0389632	0.0401636	-0.207002	-0.271837	-0.517224	2.08658	0	0	0	0.49246	0.0589342	0.345996	1.44316	1.5708	0	0
150.09	-2.93355	1.38214	-1.36121	0.8791	-0.865247	1.07919	-0.0285343	-0.0648487	-0.143024	0.202683	-0.444811	0	0	-0.327286	-0.0227684	-0.164376	0.210955	-0.209379	0	0	-0.553164	0.0380331	0.0409911	-0.202575	-0.27269	-0.517597	2.08322	0	0	0	0.497047	0.0611344	0.346199	1.43874	1.5708	0	0
150.1	-2.93857	1.38326	-1.3573	0.879784	-0.863443	1.07918	-0.0284784	-0.0630131	-0.143725	0.203068	-0.442991	0	0	-0.327415	-0.0243751	-0.165549	0.210548	-0.210165	0	0	-0.55353	0.0370746	0.0419125	-0.198139	-0.273467	-0.518191	2.08021	0	0	0	0.501348	0.0631895	0.346343	1.43492	1.5708	0	0
150.11	-2.94317	1.3842	-1.35397	0.880486	-0.861637	1.07921	-0.0285911	-0.0612058	-0.144327	0.203436	-0.44119	0	0	-0.327824	-0.0260431	-0.166666	0.210267	-0.211117	0	0	-0.554308	0.0360765	0.0428643	-0.193957	-0.274292	-0.518582	2.07785	0	0	0	0.505193	0.0652736	0.346094	1.43181	1.5708	0	0
150.12	-2.94879	1.38597	-1.34981	0.881166	-0.859759	1.0792	-0.0279076	-0.0593849	-0.144667	0.203416	-0.44017	0	0	-0.32755	-0.0276066	-0.167199	0.209777	-0.211947	0	0	-0.554117	0.0359576	0.044091	-0.189813	-0.27528	-0.518989	2.07561	0	0	0	0.507984	0.0675004	0.345128	1.42923	1.5708	0	0
